<svg width="52" height="28" viewBox="0 0 84 28" fill="none" xmlns="http://www.w3.org/2000/svg">
    <path d="M1.03603 2.7134C0.536115 1.40411 1.50298 0 2.90446 0H13.6228C14.4521 0 15.1954 0.511825 15.4912 1.2866L24.464 24.7866C24.9639 26.0959 23.997 27.5 22.5955 27.5H12.5658C11.3218 27.5 10.2069 26.7323 9.76313 25.5701L1.03603 2.7134Z" fill="white"/>
    <path d="M27.036 24.7866C26.5361 26.0959 27.503 27.5 28.9045 27.5H39.6228C40.4521 27.5 41.1954 26.9882 41.4912 26.2134L50.464 2.7134C50.9639 1.40411 49.997 0 48.5955 0L38.5658 0C37.3218 0 36.2069 0.767737 35.7631 1.9299L27.036 24.7866Z" fill="white"/>
    <path d="M59.036 24.7866C58.5361 26.0959 59.503 27.5 60.9045 27.5H71.6228C72.4521 27.5 73.1954 26.9882 73.4912 26.2134L82.464 2.7134C82.9639 1.40411 81.997 0 80.5955 0L70.5658 0C69.3218 0 68.2069 0.767737 67.7631 1.9299L59.036 24.7866Z" fill="white"/>
    <path d="M43.036 24.7866C42.5361 26.0959 43.503 27.5 44.9045 27.5H55.6228C56.4521 27.5 57.1954 26.9882 57.4912 26.2134L66.464 2.7134C66.9639 1.40411 65.997 0 64.5955 0L54.5658 0C53.3218 0 52.2069 0.767737 51.7631 1.9299L43.036 24.7866Z" fill="white"/>
</svg>